<svg width="24" height="18" viewBox="0 0 24 18" fill="none" xmlns="http://www.w3.org/2000/svg">
<g clip-path="url(#clip0_865_339)">
<path d="M6 1H9C9 1 9 4 12 4C15 4 15 1 15 1H18M18 8V16.4C18 16.7314 17.7314 17 17.4 17H6.6C6.26863 17 6 16.7314 6 16.4V8" stroke="#214720" stroke-width="1.5" stroke-linecap="round" stroke-linejoin="round"/>
<path d="M18 1L22.4429 2.77717C22.7506 2.90023 22.9002 3.24942 22.7772 3.55709L21.1509 7.6228C21.0597 7.8506 20.8391 8 20.5938 8H18" stroke="#214720" stroke-width="1.5" stroke-linecap="round" stroke-linejoin="round"/>
<path d="M5.99993 1L1.55701 2.77717C1.24934 2.90023 1.09969 3.24942 1.22276 3.55709L2.84906 7.6228C2.94018 7.8506 3.1608 8 3.40615 8H5.99993" stroke="#214720" stroke-width="1.5" stroke-linecap="round" stroke-linejoin="round"/>
</g>
<defs>
<clipPath id="clip0_865_339">
<rect width="24" height="18" fill="white"/>
</clipPath>
</defs>
</svg>
