<svg width="24" height="24" viewBox="0 0 24 24" fill="none" xmlns="http://www.w3.org/2000/svg">
<g clip-path="url(#clip0_865_367)">
<path d="M12 14.9995C13.6569 14.9995 15 13.6564 15 11.9995C15 10.3427 13.6569 8.99951 12 8.99951C10.3432 8.99951 9 10.3427 9 11.9995C9 13.6564 10.3432 14.9995 12 14.9995Z" stroke="#214720" stroke-width="1.5" stroke-miterlimit="1.5" stroke-linecap="round" stroke-linejoin="round"/>
<path d="M13 9C13 9 14 7 14 5C14 3 12 1 12 1C12 1 10 3 10 5C10 7 11 9 11 9" stroke="#214720" stroke-width="1.5" stroke-miterlimit="1.5" stroke-linecap="round" stroke-linejoin="round"/>
<path d="M9 11C9 11 7 10 5 10C3 10 1 12 1 12C1 12 3 14 5 14C7 14 9 13 9 13" stroke="#214720" stroke-width="1.5" stroke-miterlimit="1.5" stroke-linecap="round" stroke-linejoin="round"/>
<path d="M13 15C13 15 14 17 14 19C14 21 12 23 12 23C12 23 10 21 10 19C10 17 11 15 11 15" stroke="#214720" stroke-width="1.5" stroke-miterlimit="1.5" stroke-linecap="round" stroke-linejoin="round"/>
<path d="M15 11C15 11 17 10 19 10C21 10 23 12 23 12C23 12 21 14 19 14C17 14 15 13 15 13" stroke="#214720" stroke-width="1.5" stroke-miterlimit="1.5" stroke-linecap="round" stroke-linejoin="round"/>
<path d="M10.5858 9.17191C10.5858 9.17191 9.87868 7.05059 8.46447 5.63638C7.05026 4.22217 4.22183 4.22217 4.22183 4.22217C4.22183 4.22217 4.22183 7.05059 5.63604 8.46481C7.05026 9.87902 9.17158 10.5861 9.17158 10.5861" stroke="#214720" stroke-width="1.5" stroke-miterlimit="1.5" stroke-linecap="round" stroke-linejoin="round"/>
<path d="M9.17152 13.4141C9.17152 13.4141 7.0502 14.1212 5.63599 15.5354C4.22177 16.9496 4.22177 19.7781 4.22177 19.7781C4.22177 19.7781 7.0502 19.7781 8.46441 18.3639C9.87863 16.9496 10.5857 14.8283 10.5857 14.8283" stroke="#214720" stroke-width="1.5" stroke-miterlimit="1.5" stroke-linecap="round" stroke-linejoin="round"/>
<path d="M14.8285 13.4141C14.8285 13.4141 16.9498 14.1212 18.364 15.5354C19.7782 16.9496 19.7782 19.7781 19.7782 19.7781C19.7782 19.7781 16.9498 19.7781 15.5356 18.3639C14.1214 16.9496 13.4143 14.8283 13.4143 14.8283" stroke="#214720" stroke-width="1.5" stroke-miterlimit="1.5" stroke-linecap="round" stroke-linejoin="round"/>
<path d="M13.4142 9.17191C13.4142 9.17191 14.1213 7.05059 15.5355 5.63638C16.9497 4.22217 19.7782 4.22217 19.7782 4.22217C19.7782 4.22217 19.7782 7.05059 18.364 8.46481C16.9497 9.87902 14.8284 10.5861 14.8284 10.5861" stroke="#214720" stroke-width="1.5" stroke-miterlimit="1.5" stroke-linecap="round" stroke-linejoin="round"/>
</g>
<defs>
<clipPath id="clip0_865_367">
<rect width="24" height="24" fill="white"/>
</clipPath>
</defs>
</svg>
