<svg width="24" height="24" viewBox="0 0 24 24" fill="none" xmlns="http://www.w3.org/2000/svg">
<g clip-path="url(#clip0_865_352)">
<mask id="mask0_865_352" style="mask-type:luminance" maskUnits="userSpaceOnUse" x="0" y="0" width="24" height="24">
<path d="M24 0H0V24H24V0Z" fill="white"/>
</mask>
<g mask="url(#mask0_865_352)">
<path d="M17.7357 20.1914C22.2597 17.0236 23.3592 10.7882 20.1914 6.26411C17.0237 1.74006 10.7882 0.640585 6.26414 3.80836C1.74009 6.97613 0.640615 13.2116 3.80839 17.7356C6.97616 22.2597 13.2116 23.3592 17.7357 20.1914Z" stroke="#214720" stroke-width="1.5" stroke-linecap="round" stroke-linejoin="round"/>
<path d="M17.7352 20.1912L6.2637 3.80811" stroke="#214720" stroke-width="1.5" stroke-linecap="round" stroke-linejoin="round"/>
<path d="M19.5774 5.47314C15.8066 11.369 11.069 14.6864 3.27527 16.8881" stroke="#214720" stroke-width="1.5" stroke-linecap="round" stroke-linejoin="round"/>
<path d="M13.0597 2.05615C13.4732 7.29597 16.4517 11.5499 21.7065 14.4051" stroke="#214720" stroke-width="1.5" stroke-linecap="round" stroke-linejoin="round"/>
<path d="M2.293 9.59473C7.07537 11.7755 10.0541 16.0292 10.9399 21.9437" stroke="#214720" stroke-width="1.5" stroke-linecap="round" stroke-linejoin="round"/>
</g>
</g>
<defs>
<clipPath id="clip0_865_352">
<rect width="24" height="24" fill="white"/>
</clipPath>
</defs>
</svg>
