<svg width="24" height="24" viewBox="0 0 24 24" fill="none" xmlns="http://www.w3.org/2000/svg">
<path d="M10.0503 10.6064L2.97922 17.6775C2.19817 18.4585 2.19817 19.7249 2.97922 20.5059C3.76026 21.287 5.02659 21.287 5.80764 20.5059L12.8787 13.4349" stroke="#214720" stroke-width="1.5" stroke-linecap="round" stroke-linejoin="round"/>
<path d="M17.1927 13.7993L21.071 17.6776C21.8521 18.4586 21.8521 19.725 21.071 20.506C20.29 21.2871 19.0236 21.2871 18.2426 20.506L12.0341 14.2976" stroke="#214720" stroke-width="1.5" stroke-linecap="round" stroke-linejoin="round"/>
<path d="M6.73266 5.90377L4.61134 6.61088L2.49002 3.07535L3.90423 1.66113L7.43977 3.78245L6.73266 5.90377ZM6.73266 5.90377L9.56289 8.734" stroke="#214720" stroke-width="1.5" stroke-linecap="round" stroke-linejoin="round"/>
<path d="M10.0503 10.6066C9.2065 8.45363 9.37147 5.62865 11.111 3.88914C12.8505 2.14962 16.0607 1.76782 17.8285 2.82848L14.7878 5.86915L14.5052 8.98019L17.6162 8.69758L20.6569 5.6569C21.7176 7.42467 21.3358 10.6349 19.5963 12.3744C17.8567 14.1139 15.0318 14.2789 12.8788 13.435" stroke="#214720" stroke-width="1.5" stroke-linecap="round" stroke-linejoin="round"/>
</svg>
